<svg xmlns="http://www.w3.org/2000/svg" xmlns:xlink="http://www.w3.org/1999/xlink" version="1.2" width="205.80mm" height="80.66mm" viewBox="-7.3408 -0.0000 117.1115 45.8977">
<style type="text/css">
<![CDATA[
tspan { white-space: pre; }
]]>
</style>
<g transform="translate(-7.3408, 2.6532)">
<text font-family="serif" font-weight="bold" font-size="3.4923" text-anchor="start" fill="currentColor">
<tspan>Beethoven, Symphony No. 5 in C minor, op. 67 — i, mm. 1–5</tspan>
</text>
</g>
<g transform="translate(22.9955, 6.1532)">
<text font-family="serif" font-weight="bold" font-size="2.4697" text-anchor="start" fill="currentColor">
<tspan>Schenkerian graph of the opening motto</tspan>
</text>
</g>
<g transform="translate(6.8287, 12.7398)">
<line stroke-linejoin="round" stroke-linecap="round" stroke-width="0.1000" stroke="currentColor" x1="0.0500" y1="0" x2="57.5134" y2="0"/>
</g>
<g transform="translate(6.8287, 11.7398)">
<line stroke-linejoin="round" stroke-linecap="round" stroke-width="0.1000" stroke="currentColor" x1="0.0500" y1="0" x2="57.5134" y2="0"/>
</g>
<g transform="translate(6.8287, 10.7398)">
<line stroke-linejoin="round" stroke-linecap="round" stroke-width="0.1000" stroke="currentColor" x1="0.0500" y1="0" x2="57.5134" y2="0"/>
</g>
<g transform="translate(6.8287, 9.7398)">
<line stroke-linejoin="round" stroke-linecap="round" stroke-width="0.1000" stroke="currentColor" x1="0.0500" y1="0" x2="57.5134" y2="0"/>
</g>
<g transform="translate(6.8287, 8.7398)">
<line stroke-linejoin="round" stroke-linecap="round" stroke-width="0.1000" stroke="currentColor" x1="0.0500" y1="0" x2="57.5134" y2="0"/>
</g>
<g transform="translate(6.8287, 21.7398)">
<line stroke-linejoin="round" stroke-linecap="round" stroke-width="0.1000" stroke="currentColor" x1="0.0500" y1="0" x2="57.5134" y2="0"/>
</g>
<g transform="translate(6.8287, 20.7398)">
<line stroke-linejoin="round" stroke-linecap="round" stroke-width="0.1000" stroke="currentColor" x1="0.0500" y1="0" x2="57.5134" y2="0"/>
</g>
<g transform="translate(6.8287, 19.7398)">
<line stroke-linejoin="round" stroke-linecap="round" stroke-width="0.1000" stroke="currentColor" x1="0.0500" y1="0" x2="57.5134" y2="0"/>
</g>
<g transform="translate(6.8287, 18.7398)">
<line stroke-linejoin="round" stroke-linecap="round" stroke-width="0.1000" stroke="currentColor" x1="0.0500" y1="0" x2="57.5134" y2="0"/>
</g>
<g transform="translate(6.8287, 17.7398)">
<line stroke-linejoin="round" stroke-linecap="round" stroke-width="0.1000" stroke="currentColor" x1="0.0500" y1="0" x2="57.5134" y2="0"/>
</g>
<g transform="translate(6.8287, 34.4638)">
<line stroke-linejoin="round" stroke-linecap="round" stroke-width="0.1000" stroke="currentColor" x1="0.0500" y1="0" x2="57.5134" y2="0"/>
</g>
<g transform="translate(6.8287, 33.4638)">
<line stroke-linejoin="round" stroke-linecap="round" stroke-width="0.1000" stroke="currentColor" x1="0.0500" y1="0" x2="57.5134" y2="0"/>
</g>
<g transform="translate(6.8287, 32.4638)">
<line stroke-linejoin="round" stroke-linecap="round" stroke-width="0.1000" stroke="currentColor" x1="0.0500" y1="0" x2="57.5134" y2="0"/>
</g>
<g transform="translate(6.8287, 31.4638)">
<line stroke-linejoin="round" stroke-linecap="round" stroke-width="0.1000" stroke="currentColor" x1="0.0500" y1="0" x2="57.5134" y2="0"/>
</g>
<g transform="translate(6.8287, 30.4638)">
<line stroke-linejoin="round" stroke-linecap="round" stroke-width="0.1000" stroke="currentColor" x1="0.0500" y1="0" x2="57.5134" y2="0"/>
</g>
<g transform="translate(6.8287, 43.4638)">
<line stroke-linejoin="round" stroke-linecap="round" stroke-width="0.1000" stroke="currentColor" x1="0.0500" y1="0" x2="57.5134" y2="0"/>
</g>
<g transform="translate(6.8287, 42.4638)">
<line stroke-linejoin="round" stroke-linecap="round" stroke-width="0.1000" stroke="currentColor" x1="0.0500" y1="0" x2="57.5134" y2="0"/>
</g>
<g transform="translate(6.8287, 41.4638)">
<line stroke-linejoin="round" stroke-linecap="round" stroke-width="0.1000" stroke="currentColor" x1="0.0500" y1="0" x2="57.5134" y2="0"/>
</g>
<g transform="translate(6.8287, 40.4638)">
<line stroke-linejoin="round" stroke-linecap="round" stroke-width="0.1000" stroke="currentColor" x1="0.0500" y1="0" x2="57.5134" y2="0"/>
</g>
<g transform="translate(6.8287, 39.4638)">
<line stroke-linejoin="round" stroke-linecap="round" stroke-width="0.1000" stroke="currentColor" x1="0.0500" y1="0" x2="57.5134" y2="0"/>
</g>
<a style="color:inherit;" xlink:href="textedit:///Users/christoph/src/github.com/folkengine/.claude/docs/schenker/beethoven5-motto/foreground.ly:6:5:6">
<g transform="translate(18.7921, 11.7398)">
<path transform="scale(0.0040, -0.0040)" d="M0 -46c0 91 116 182 217 182c63 0 109 -35 109 -90c0 -87 -110 -182 -220 -182c-67 0 -106 39 -106 90z" fill="currentColor"/>
</g>
</a>
<a style="color:inherit;" xlink:href="textedit:///Users/christoph/src/github.com/folkengine/.claude/docs/schenker/beethoven5-motto/middleground.ly:6:5:6">
<g transform="translate(18.7921, 20.7398)">
<path transform="scale(0.0040, -0.0040)" d="M0 -46c0 91 116 182 217 182c63 0 109 -35 109 -90c0 -87 -110 -182 -220 -182c-67 0 -106 39 -106 90z" fill="currentColor"/>
</g>
</a>
<a style="color:inherit;" xlink:href="textedit:///Users/christoph/src/github.com/folkengine/.claude/docs/schenker/beethoven5-motto/middleground.ly:6:8:9">
<g transform="translate(18.7921, 17.1898)">
<text font-family="serif" font-size="1.9598" text-anchor="start" fill="currentColor">
<tspan>V</tspan>
</text>
</g>
</a>
<g transform="translate(20.0313, 10.7398)">
<rect x="-0.0650" y="-2.0000" width="0.1300" height="2.8138" ry="0.0400" fill="currentColor"/>
</g>
<a style="color:inherit;" xlink:href="textedit:///Users/christoph/src/github.com/folkengine/.claude/docs/schenker/beethoven5-motto/foreground.ly:9:4:5">
<g transform="translate(45.1921, 10.7398)">
<path stroke-width="0.0800" stroke-linejoin="round" stroke-linecap="round" stroke="currentColor" fill="currentColor" d="M1.5774 3.0000C2.6931 3.9074 8.2843 3.9074 9.4000 3.0000L9.4000 3.0000C8.2843 3.7874 2.6931 3.7874 1.5774 3.0000z"/>
</g>
</a>
<a style="color:inherit;" xlink:href="textedit:///Users/christoph/src/github.com/folkengine/.claude/docs/schenker/beethoven5-motto/foreground.ly:6:32:33">
<g transform="translate(21.1921, 11.7398)">
<path transform="scale(0.0040, -0.0040)" d="M0 -46c0 91 116 182 217 182c63 0 109 -35 109 -90c0 -87 -110 -182 -220 -182c-67 0 -106 39 -106 90z" fill="currentColor"/>
</g>
</a>
<g transform="translate(22.4313, 10.7398)">
<rect x="-0.0650" y="-2.0000" width="0.1300" height="2.8138" ry="0.0400" fill="currentColor"/>
</g>
<a style="color:inherit;" xlink:href="textedit:///Users/christoph/src/github.com/folkengine/.claude/docs/schenker/beethoven5-motto/middleground.ly:8:7:8">
<g transform="translate(37.9921, 19.7398)">
<path stroke-width="0.0800" stroke-linejoin="round" stroke-linecap="round" stroke="currentColor" fill="currentColor" d="M0.5926 2.5450C2.0604 4.2792 5.9426 4.8159 7.8259 3.5450L7.8259 3.5450C5.9590 4.6971 2.0768 4.1604 0.5926 2.5450z"/>
</g>
</a>
<a style="color:inherit;" xlink:href="textedit:///Users/christoph/src/github.com/folkengine/.claude/docs/schenker/beethoven5-motto/foreground.ly:6:35:36">
<g transform="translate(23.5921, 11.7398)">
<path transform="scale(0.0040, -0.0040)" d="M0 -46c0 91 116 182 217 182c63 0 109 -35 109 -90c0 -87 -110 -182 -220 -182c-67 0 -106 39 -106 90z" fill="currentColor"/>
</g>
</a>
<g transform="translate(24.8313, 10.7398)">
<rect x="-0.0650" y="-2.0000" width="0.1300" height="2.8138" ry="0.0400" fill="currentColor"/>
</g>
<a style="color:inherit;" xlink:href="textedit:///Users/christoph/src/github.com/folkengine/.claude/docs/schenker/beethoven5-motto/foreground.ly:8:19:20">
<g transform="translate(39.1663, 8.9298)">
<polygon stroke-linejoin="round" stroke-linecap="round" stroke-width="0.0800" fill="currentColor" stroke="currentColor" points="4.8900 -0.2000 4.8900 0.2000 0.0400 0.2000 0.0400 -0.2000"/>
</g>
</a>
<a style="color:inherit;" xlink:href="textedit:///Users/christoph/src/github.com/folkengine/.claude/docs/schenker/beethoven5-motto/background-urlinie.ly:7:23:24">
<g transform="translate(27.3695, 27.4638)">
<polygon stroke-linejoin="round" stroke-linecap="round" stroke-width="0.0800" fill="currentColor" stroke="currentColor" points="19.1600 -0.2600 19.1600 0.2600 0.0400 0.2600 0.0400 -0.2600"/>
</g>
</a>
<a style="color:inherit;" xlink:href="textedit:///Users/christoph/src/github.com/folkengine/.claude/docs/schenker/beethoven5-motto/foreground.ly:7:2:3">
<g transform="translate(25.9921, 12.7398)">
<path transform="scale(0.0040, -0.0040)" d="M72 -106c40 0 204 110 231 143c7 9 11 19 11 28c0 22 -18 41 -42 41c-40 0 -204 -110 -231 -143c-7 -9 -10 -19 -10 -28c0 -22 17 -41 41 -41zM0 -67c0 71 46 203 258 203c41 0 86 -10 86 -69c0 -71 -46 -203 -258 -203c-41 0 -86 10 -86 69z" fill="currentColor"/>
</g>
</a>
<a style="color:inherit;" xlink:href="textedit:///Users/christoph/src/github.com/folkengine/.claude/docs/schenker/beethoven5-motto/foreground.ly:7:5:6">
<g transform="translate(26.6808, 8.1538)">
<path transform="scale(0.0040, -0.0040)" d="M-67 48c0 37 30 67 67 67s67 -30 67 -67s-30 -67 -67 -67s-67 30 -67 67zM-332 -3c0 35 77 366 332 366s332 -331 332 -366c0 -9 -10 -15 -19 -15s-17 5 -19 18c-26 148 -146 262 -294 262s-268 -114 -294 -262c-2 -13 -10 -18 -19 -18s-19 6 -19 15z" fill="currentColor"/>
</g>
</a>
<a style="color:inherit;" xlink:href="textedit:///Users/christoph/src/github.com/folkengine/.claude/docs/schenker/beethoven5-motto/background-bass.ly:3:2:3">
<g transform="translate(11.2521, 42.4638)">
<path transform="scale(0.0040, -0.0040)" d="M27 41l-1 -66v-11c0 -22 1 -44 4 -66c45 38 93 80 93 139c0 33 -14 67 -43 67c-31 0 -52 -30 -53 -63zM-15 -138l-12 595c8 5 18 8 27 8s19 -3 27 -8l-7 -345c25 21 58 34 91 34c52 0 89 -48 89 -102c0 -80 -86 -117 -147 -169c-15 -13 -24 -38 -45 -38
c-13 0 -23 11 -23 25z" fill="currentColor"/>
</g>
<g transform="translate(12.1721, 40.9638)">
<path transform="scale(0.0040, -0.0040)" d="M27 41l-1 -66v-11c0 -22 1 -44 4 -66c45 38 93 80 93 139c0 33 -14 67 -43 67c-31 0 -52 -30 -53 -63zM-15 -138l-12 595c8 5 18 8 27 8s19 -3 27 -8l-7 -345c25 21 58 34 91 34c52 0 89 -48 89 -102c0 -80 -86 -117 -147 -169c-15 -13 -24 -38 -45 -38
c-13 0 -23 11 -23 25z" fill="currentColor"/>
</g>
<g transform="translate(13.0921, 42.9638)">
<path transform="scale(0.0040, -0.0040)" d="M27 41l-1 -66v-11c0 -22 1 -44 4 -66c45 38 93 80 93 139c0 33 -14 67 -43 67c-31 0 -52 -30 -53 -63zM-15 -138l-12 595c8 5 18 8 27 8s19 -3 27 -8l-7 -345c25 21 58 34 91 34c52 0 89 -48 89 -102c0 -80 -86 -117 -147 -169c-15 -13 -24 -38 -45 -38
c-13 0 -23 11 -23 25z" fill="currentColor"/>
</g>
</a>
<a style="color:inherit;" xlink:href="textedit:///Users/christoph/src/github.com/folkengine/.claude/docs/schenker/beethoven5-motto/middleground.ly:7:2:3">
<g transform="translate(25.9921, 21.7398)">
<path transform="scale(0.0040, -0.0040)" d="M72 -106c40 0 204 110 231 143c7 9 11 19 11 28c0 22 -18 41 -42 41c-40 0 -204 -110 -231 -143c-7 -9 -10 -19 -10 -28c0 -22 17 -41 41 -41zM0 -67c0 71 46 203 258 203c41 0 86 -10 86 -69c0 -71 -46 -203 -258 -203c-41 0 -86 10 -86 69z" fill="currentColor"/>
</g>
</a>
<a style="color:inherit;" xlink:href="textedit:///Users/christoph/src/github.com/folkengine/.claude/docs/schenker/beethoven5-motto/middleground.ly:7:6:7">
<g transform="translate(25.9921, 17.1898)">
<text font-family="serif" font-size="1.9598" text-anchor="start" fill="currentColor">
<tspan>III</tspan>
</text>
</g>
</a>
<g transform="translate(7.6287, 40.4638)">
<path transform="scale(0.0040, -0.0040)" d="M557 -125c0 28 23 51 51 51s51 -23 51 -51s-23 -51 -51 -51s-51 23 -51 51zM557 125c0 28 23 51 51 51s51 -23 51 -51s-23 -51 -51 -51s-51 23 -51 51zM232 263c172 0 293 -88 293 -251c0 -263 -263 -414 -516 -521c-3 -3 -6 -4 -9 -4c-7 0 -13 6 -13 13c0 3 1 6 4 9
c202 118 412 265 412 493c0 120 -63 235 -171 235c-74 0 -129 -54 -154 -126c11 5 22 8 34 8c55 0 100 -45 100 -100c0 -58 -44 -106 -100 -106c-60 0 -112 47 -112 106c0 133 102 244 232 244z" fill="currentColor"/>
</g>
<a style="color:inherit;" xlink:href="textedit:///Users/christoph/src/github.com/folkengine/.claude/docs/schenker/beethoven5-motto/background-urlinie.ly:7:2:3">
<g transform="translate(25.9921, 34.4638)">
<path transform="scale(0.0040, -0.0040)" d="M72 -106c40 0 204 110 231 143c7 9 11 19 11 28c0 22 -18 41 -42 41c-40 0 -204 -110 -231 -143c-7 -9 -10 -19 -10 -28c0 -22 17 -41 41 -41zM0 -67c0 71 46 203 258 203c41 0 86 -10 86 -69c0 -71 -46 -203 -258 -203c-41 0 -86 10 -86 69z" fill="currentColor"/>
</g>
</a>
<a style="color:inherit;" xlink:href="textedit:///Users/christoph/src/github.com/folkengine/.claude/docs/schenker/beethoven5-motto/background-urlinie.ly:7:5:6">
<g transform="translate(25.9921, 25.7760)">
<text font-family="serif" font-weight="bold" font-size="1.5552" text-anchor="start" fill="currentColor">
<tspan>^</tspan>
</text>
</g>
<g transform="translate(26.0091, 26.9760)">
<text font-family="serif" font-size="1.9598" text-anchor="start" fill="currentColor">
<tspan>3</tspan>
</text>
</g>
</a>
<a style="color:inherit;" xlink:href="textedit:///Users/christoph/src/github.com/folkengine/.claude/docs/schenker/beethoven5-motto/background-urlinie.ly:3:2:3">
<g transform="translate(11.2521, 32.4638)">
<path transform="scale(0.0040, -0.0040)" d="M27 41l-1 -66v-11c0 -22 1 -44 4 -66c45 38 93 80 93 139c0 33 -14 67 -43 67c-31 0 -52 -30 -53 -63zM-15 -138l-12 595c8 5 18 8 27 8s19 -3 27 -8l-7 -345c25 21 58 34 91 34c52 0 89 -48 89 -102c0 -80 -86 -117 -147 -169c-15 -13 -24 -38 -45 -38
c-13 0 -23 11 -23 25z" fill="currentColor"/>
</g>
<g transform="translate(12.1721, 30.9638)">
<path transform="scale(0.0040, -0.0040)" d="M27 41l-1 -66v-11c0 -22 1 -44 4 -66c45 38 93 80 93 139c0 33 -14 67 -43 67c-31 0 -52 -30 -53 -63zM-15 -138l-12 595c8 5 18 8 27 8s19 -3 27 -8l-7 -345c25 21 58 34 91 34c52 0 89 -48 89 -102c0 -80 -86 -117 -147 -169c-15 -13 -24 -38 -45 -38
c-13 0 -23 11 -23 25z" fill="currentColor"/>
</g>
<g transform="translate(13.0921, 32.9638)">
<path transform="scale(0.0040, -0.0040)" d="M27 41l-1 -66v-11c0 -22 1 -44 4 -66c45 38 93 80 93 139c0 33 -14 67 -43 67c-31 0 -52 -30 -53 -63zM-15 -138l-12 595c8 5 18 8 27 8s19 -3 27 -8l-7 -345c25 21 58 34 91 34c52 0 89 -48 89 -102c0 -80 -86 -117 -147 -169c-15 -13 -24 -38 -45 -38
c-13 0 -23 11 -23 25z" fill="currentColor"/>
</g>
</a>
<a style="color:inherit;" xlink:href="textedit:///Users/christoph/src/github.com/folkengine/.claude/docs/schenker/beethoven5-motto/background-bass.ly:7:2:3">
<g transform="translate(25.9921, 41.9638)">
<path transform="scale(0.0040, -0.0040)" d="M72 -106c40 0 204 110 231 143c7 9 11 19 11 28c0 22 -18 41 -42 41c-40 0 -204 -110 -231 -143c-7 -9 -10 -19 -10 -28c0 -22 17 -41 41 -41zM0 -67c0 71 46 203 258 203c41 0 86 -10 86 -69c0 -71 -46 -203 -258 -203c-41 0 -86 10 -86 69z" fill="currentColor"/>
</g>
</a>
<a style="color:inherit;" xlink:href="textedit:///Users/christoph/src/github.com/folkengine/.claude/docs/schenker/beethoven5-motto/background-bass.ly:7:18:19">
<g transform="translate(25.9921, 45.4028)">
<text font-family="serif" font-size="1.9598" text-anchor="start" fill="currentColor">
<tspan>I</tspan>
</text>
</g>
</a>
<g transform="translate(7.6287, 33.4638)">
<path transform="scale(0.0040, -0.0040)" d="M266 -635h-6c-108 0 -195 88 -195 197c0 58 53 103 112 103c54 0 95 -47 95 -103c0 -52 -43 -95 -95 -95c-11 0 -21 2 -31 6c26 -39 68 -65 117 -65h4zM401 151c19 -89 48 -242 60 -354c76 27 112 94 112 163c0 89 -60 179 -172 191zM74 28c0 -112 98 -247 278 -247
c21 0 44 2 68 6c-7 64 -29 203 -63 364c-79 -8 -124 -61 -124 -119c0 -44 25 -91 81 -123c5 -5 7 -10 7 -15c0 -11 -10 -22 -22 -22c-15 0 -126 62 -126 187c0 88 58 174 160 197c-14 58 -29 117 -46 175c-107 -121 -213 -243 -213 -403zM357 1194c28 0 143 -206 143 -361
c0 -143 -86 -255 -180 -364c21 -68 39 -138 56 -207c5 0 10 1 14 1c155 0 255 -129 255 -262c0 -113 -74 -212 -180 -245c3 -35 5 -70 5 -105c0 -19 -1 -39 -2 -58c-7 -119 -88 -225 -202 -228l1 43c93 2 153 92 159 191c1 18 2 37 2 55c0 31 -1 61 -4 92
c-28 -5 -55 -8 -80 -8c-239 0 -342 217 -342 374c0 177 131 306 248 441c-29 96 -52 170 -52 346c0 189 144 295 159 295zM247 782c0 -55 12 -115 35 -190c82 100 147 202 147 326c0 40 -6 82 -21 127c-49 -24 -161 -97 -161 -263z" fill="currentColor"/>
</g>
<g transform="translate(27.3045, 10.7398)">
<rect x="-0.0650" y="-1.5000" width="0.1300" height="3.2410" ry="0.0400" fill="currentColor"/>
</g>
<g transform="translate(27.3695, 32.4638)">
<rect x="-0.0000" y="-5.0000" width="0.0000" height="6.7410" ry="0.0000" fill="currentColor"/>
</g>
<g transform="translate(27.3695, 41.4638)">
<rect x="-0.0000" y="-3.0000" width="0.0000" height="3.2410" ry="0.0000" fill="currentColor"/>
</g>
<g transform="translate(25.7921, 41.9638)">
<path transform="scale(0.0020, -0.0020)" d="M-31 250c0 -21 -63 -57 -63 -250s63 -229 63 -250c0 -10 -9 -19 -19 -19c-5 0 -12 2 -16 8c-54 77 -90 167 -90 261s36 184 90 261c4 6 11 8 16 8c10 0 19 -9 19 -19z" fill="currentColor"/>
</g>
<g transform="translate(27.5695, 41.9638)">
<path transform="scale(0.0020, -0.0020)" d="M31 -250c0 21 63 57 63 250s-63 229 -63 250c0 10 9 19 19 19c5 0 12 -2 16 -8c54 -77 90 -167 90 -261s-36 -184 -90 -261c-4 -6 -11 -8 -16 -8c-10 0 -19 9 -19 19z" fill="currentColor"/>
</g>
<a style="color:inherit;" xlink:href="textedit:///Users/christoph/src/github.com/folkengine/.claude/docs/schenker/beethoven5-motto/middleground.ly:6:7:8">
<g transform="translate(18.7921, 19.7398)">
<path stroke-width="0.0800" stroke-linejoin="round" stroke-linecap="round" stroke="currentColor" fill="currentColor" d="M0.6014 2.1950C2.1015 3.8961 5.9816 4.3521 7.8351 3.0450L7.8351 3.0450C5.9956 4.2329 2.1155 3.7770 0.6014 2.1950z"/>
</g>
</a>
<g transform="translate(29.7695, 32.4638)">
<rect x="-0.0000" y="-5.0000" width="0.0000" height="6.7410" ry="0.0000" fill="currentColor"/>
</g>
<a style="color:inherit;" xlink:href="textedit:///Users/christoph/src/github.com/folkengine/.claude/docs/schenker/beethoven5-motto/foreground.ly:6:30:31">
<g transform="translate(19.9663, 8.7398)">
<polygon stroke-linejoin="round" stroke-linecap="round" stroke-width="0.0800" fill="currentColor" stroke="currentColor" points="4.8900 -0.2000 4.8900 0.2000 0.0400 0.2000 0.0400 -0.2000"/>
</g>
</a>
<g transform="translate(32.1695, 32.4638)">
<rect x="-0.0000" y="-5.0000" width="0.0000" height="6.7410" ry="0.0000" fill="currentColor"/>
</g>
<g transform="translate(34.5695, 32.4638)">
<rect x="-0.0000" y="-5.0000" width="0.0000" height="6.7410" ry="0.0000" fill="currentColor"/>
</g>
<a style="color:inherit;" xlink:href="textedit:///Users/christoph/src/github.com/folkengine/.claude/docs/schenker/beethoven5-motto/foreground.ly:8:2:3">
<g transform="translate(35.5921, 10.7398)">
<path transform="scale(0.0040, -0.0040)" d="M70 205c79 0 46 -98 91 -98c16 0 54 48 61 63c3 6 8 9 14 9s12 -3 14 -9l-123 -420c-8 -7 -17 -10 -27 -10s-20 3 -28 10l117 326c-34 -12 -69 -22 -105 -22c-58 0 -85 41 -85 80c0 36 24 71 71 71z" fill="currentColor"/>
</g>
</a>
<a style="color:inherit;" xlink:href="textedit:///Users/christoph/src/github.com/folkengine/.claude/docs/schenker/beethoven5-motto/middleground.ly:3:2:3">
<g transform="translate(11.2521, 19.7398)">
<path transform="scale(0.0040, -0.0040)" d="M27 41l-1 -66v-11c0 -22 1 -44 4 -66c45 38 93 80 93 139c0 33 -14 67 -43 67c-31 0 -52 -30 -53 -63zM-15 -138l-12 595c8 5 18 8 27 8s19 -3 27 -8l-7 -345c25 21 58 34 91 34c52 0 89 -48 89 -102c0 -80 -86 -117 -147 -169c-15 -13 -24 -38 -45 -38
c-13 0 -23 11 -23 25z" fill="currentColor"/>
</g>
<g transform="translate(12.1721, 18.2398)">
<path transform="scale(0.0040, -0.0040)" d="M27 41l-1 -66v-11c0 -22 1 -44 4 -66c45 38 93 80 93 139c0 33 -14 67 -43 67c-31 0 -52 -30 -53 -63zM-15 -138l-12 595c8 5 18 8 27 8s19 -3 27 -8l-7 -345c25 21 58 34 91 34c52 0 89 -48 89 -102c0 -80 -86 -117 -147 -169c-15 -13 -24 -38 -45 -38
c-13 0 -23 11 -23 25z" fill="currentColor"/>
</g>
<g transform="translate(13.0921, 20.2398)">
<path transform="scale(0.0040, -0.0040)" d="M27 41l-1 -66v-11c0 -22 1 -44 4 -66c45 38 93 80 93 139c0 33 -14 67 -43 67c-31 0 -52 -30 -53 -63zM-15 -138l-12 595c8 5 18 8 27 8s19 -3 27 -8l-7 -345c25 21 58 34 91 34c52 0 89 -48 89 -102c0 -80 -86 -117 -147 -169c-15 -13 -24 -38 -45 -38
c-13 0 -23 11 -23 25z" fill="currentColor"/>
</g>
</a>
<g transform="translate(7.6287, 20.7398)">
<path transform="scale(0.0040, -0.0040)" d="M266 -635h-6c-108 0 -195 88 -195 197c0 58 53 103 112 103c54 0 95 -47 95 -103c0 -52 -43 -95 -95 -95c-11 0 -21 2 -31 6c26 -39 68 -65 117 -65h4zM401 151c19 -89 48 -242 60 -354c76 27 112 94 112 163c0 89 -60 179 -172 191zM74 28c0 -112 98 -247 278 -247
c21 0 44 2 68 6c-7 64 -29 203 -63 364c-79 -8 -124 -61 -124 -119c0 -44 25 -91 81 -123c5 -5 7 -10 7 -15c0 -11 -10 -22 -22 -22c-15 0 -126 62 -126 187c0 88 58 174 160 197c-14 58 -29 117 -46 175c-107 -121 -213 -243 -213 -403zM357 1194c28 0 143 -206 143 -361
c0 -143 -86 -255 -180 -364c21 -68 39 -138 56 -207c5 0 10 1 14 1c155 0 255 -129 255 -262c0 -113 -74 -212 -180 -245c3 -35 5 -70 5 -105c0 -19 -1 -39 -2 -58c-7 -119 -88 -225 -202 -228l1 43c93 2 153 92 159 191c1 18 2 37 2 55c0 31 -1 61 -4 92
c-28 -5 -55 -8 -80 -8c-239 0 -342 217 -342 374c0 177 131 306 248 441c-29 96 -52 170 -52 346c0 189 144 295 159 295zM247 782c0 -55 12 -115 35 -190c82 100 147 202 147 326c0 40 -6 82 -21 127c-49 -24 -161 -97 -161 -263z" fill="currentColor"/>
</g>
<a style="color:inherit;" xlink:href="textedit:///Users/christoph/src/github.com/folkengine/.claude/docs/schenker/beethoven5-motto/foreground.ly:3:2:3">
<g transform="translate(11.2521, 10.7398)">
<path transform="scale(0.0040, -0.0040)" d="M27 41l-1 -66v-11c0 -22 1 -44 4 -66c45 38 93 80 93 139c0 33 -14 67 -43 67c-31 0 -52 -30 -53 -63zM-15 -138l-12 595c8 5 18 8 27 8s19 -3 27 -8l-7 -345c25 21 58 34 91 34c52 0 89 -48 89 -102c0 -80 -86 -117 -147 -169c-15 -13 -24 -38 -45 -38
c-13 0 -23 11 -23 25z" fill="currentColor"/>
</g>
<g transform="translate(12.1721, 9.2398)">
<path transform="scale(0.0040, -0.0040)" d="M27 41l-1 -66v-11c0 -22 1 -44 4 -66c45 38 93 80 93 139c0 33 -14 67 -43 67c-31 0 -52 -30 -53 -63zM-15 -138l-12 595c8 5 18 8 27 8s19 -3 27 -8l-7 -345c25 21 58 34 91 34c52 0 89 -48 89 -102c0 -80 -86 -117 -147 -169c-15 -13 -24 -38 -45 -38
c-13 0 -23 11 -23 25z" fill="currentColor"/>
</g>
<g transform="translate(13.0921, 11.2398)">
<path transform="scale(0.0040, -0.0040)" d="M27 41l-1 -66v-11c0 -22 1 -44 4 -66c45 38 93 80 93 139c0 33 -14 67 -43 67c-31 0 -52 -30 -53 -63zM-15 -138l-12 595c8 5 18 8 27 8s19 -3 27 -8l-7 -345c25 21 58 34 91 34c52 0 89 -48 89 -102c0 -80 -86 -117 -147 -169c-15 -13 -24 -38 -45 -38
c-13 0 -23 11 -23 25z" fill="currentColor"/>
</g>
</a>
<g transform="translate(7.6287, 11.7398)">
<path transform="scale(0.0040, -0.0040)" d="M266 -635h-6c-108 0 -195 88 -195 197c0 58 53 103 112 103c54 0 95 -47 95 -103c0 -52 -43 -95 -95 -95c-11 0 -21 2 -31 6c26 -39 68 -65 117 -65h4zM401 151c19 -89 48 -242 60 -354c76 27 112 94 112 163c0 89 -60 179 -172 191zM74 28c0 -112 98 -247 278 -247
c21 0 44 2 68 6c-7 64 -29 203 -63 364c-79 -8 -124 -61 -124 -119c0 -44 25 -91 81 -123c5 -5 7 -10 7 -15c0 -11 -10 -22 -22 -22c-15 0 -126 62 -126 187c0 88 58 174 160 197c-14 58 -29 117 -46 175c-107 -121 -213 -243 -213 -403zM357 1194c28 0 143 -206 143 -361
c0 -143 -86 -255 -180 -364c21 -68 39 -138 56 -207c5 0 10 1 14 1c155 0 255 -129 255 -262c0 -113 -74 -212 -180 -245c3 -35 5 -70 5 -105c0 -19 -1 -39 -2 -58c-7 -119 -88 -225 -202 -228l1 43c93 2 153 92 159 191c1 18 2 37 2 55c0 31 -1 61 -4 92
c-28 -5 -55 -8 -80 -8c-239 0 -342 217 -342 374c0 177 131 306 248 441c-29 96 -52 170 -52 346c0 189 144 295 159 295zM247 782c0 -55 12 -115 35 -190c82 100 147 202 147 326c0 40 -6 82 -21 127c-49 -24 -161 -97 -161 -263z" fill="currentColor"/>
</g>
<g transform="translate(36.9695, 32.4638)">
<rect x="-0.0000" y="-5.0000" width="0.0000" height="6.7410" ry="0.0000" fill="currentColor"/>
</g>
<a style="color:inherit;" xlink:href="textedit:///Users/christoph/src/github.com/folkengine/.claude/docs/schenker/beethoven5-motto/foreground.ly:6:2:3">
<g transform="translate(16.3921, 10.7398)">
<path transform="scale(0.0040, -0.0040)" d="M70 205c79 0 46 -98 91 -98c16 0 54 48 61 63c3 6 8 9 14 9s12 -3 14 -9l-123 -420c-8 -7 -17 -10 -27 -10s-20 3 -28 10l117 326c-34 -12 -69 -22 -105 -22c-58 0 -85 41 -85 80c0 36 24 71 71 71z" fill="currentColor"/>
</g>
</a>
<a style="color:inherit;" xlink:href="textedit:///Users/christoph/src/github.com/folkengine/.claude/docs/schenker/beethoven5-motto/foreground.ly:8:5:6">
<g transform="translate(37.9921, 12.2398)">
<path transform="scale(0.0040, -0.0040)" d="M0 -46c0 91 116 182 217 182c63 0 109 -35 109 -90c0 -87 -110 -182 -220 -182c-67 0 -106 39 -106 90z" fill="currentColor"/>
</g>
</a>
<a style="color:inherit;" xlink:href="textedit:///Users/christoph/src/github.com/folkengine/.claude/docs/schenker/beethoven5-motto/middleground.ly:8:5:6">
<g transform="translate(37.9921, 21.2398)">
<path transform="scale(0.0040, -0.0040)" d="M0 -46c0 91 116 182 217 182c63 0 109 -35 109 -90c0 -87 -110 -182 -220 -182c-67 0 -106 39 -106 90z" fill="currentColor"/>
</g>
</a>
<a style="color:inherit;" xlink:href="textedit:///Users/christoph/src/github.com/folkengine/.claude/docs/schenker/beethoven5-motto/middleground.ly:8:8:9">
<g transform="translate(37.9921, 17.1898)">
<text font-family="serif" font-size="1.9598" text-anchor="start" fill="currentColor">
<tspan>IV</tspan>
</text>
</g>
</a>
<g transform="translate(39.2313, 10.7398)">
<rect x="-0.0650" y="-1.8100" width="0.1300" height="3.1238" ry="0.0400" fill="currentColor"/>
</g>
<g transform="translate(39.3695, 32.4638)">
<rect x="-0.0000" y="-5.0000" width="0.0000" height="6.7410" ry="0.0000" fill="currentColor"/>
</g>
<a style="color:inherit;" xlink:href="textedit:///Users/christoph/src/github.com/folkengine/.claude/docs/schenker/beethoven5-motto/foreground.ly:8:21:22">
<g transform="translate(40.3921, 12.2398)">
<path transform="scale(0.0040, -0.0040)" d="M0 -46c0 91 116 182 217 182c63 0 109 -35 109 -90c0 -87 -110 -182 -220 -182c-67 0 -106 39 -106 90z" fill="currentColor"/>
</g>
</a>
<g transform="translate(41.6313, 10.7398)">
<rect x="-0.0650" y="-1.8100" width="0.1300" height="3.1238" ry="0.0400" fill="currentColor"/>
</g>
<g transform="translate(41.7695, 32.4638)">
<rect x="-0.0000" y="-5.0000" width="0.0000" height="6.7410" ry="0.0000" fill="currentColor"/>
</g>
<a style="color:inherit;" xlink:href="textedit:///Users/christoph/src/github.com/folkengine/.claude/docs/schenker/beethoven5-motto/foreground.ly:8:24:25">
<g transform="translate(42.7921, 12.2398)">
<path transform="scale(0.0040, -0.0040)" d="M0 -46c0 91 116 182 217 182c63 0 109 -35 109 -90c0 -87 -110 -182 -220 -182c-67 0 -106 39 -106 90z" fill="currentColor"/>
</g>
</a>
<g transform="translate(44.0313, 10.7398)">
<rect x="-0.0650" y="-1.8100" width="0.1300" height="3.1238" ry="0.0400" fill="currentColor"/>
</g>
<g transform="translate(44.1695, 32.4638)">
<rect x="-0.0000" y="-5.0000" width="0.0000" height="6.7410" ry="0.0000" fill="currentColor"/>
</g>
<a style="color:inherit;" xlink:href="textedit:///Users/christoph/src/github.com/folkengine/.claude/docs/schenker/beethoven5-motto/foreground.ly:9:2:3">
<g transform="translate(45.1921, 13.2398)">
<path transform="scale(0.0040, -0.0040)" d="M72 -106c40 0 204 110 231 143c7 9 11 19 11 28c0 22 -18 41 -42 41c-40 0 -204 -110 -231 -143c-7 -9 -10 -19 -10 -28c0 -22 17 -41 41 -41zM0 -67c0 71 46 203 258 203c41 0 86 -10 86 -69c0 -71 -46 -203 -258 -203c-41 0 -86 10 -86 69z" fill="currentColor"/>
</g>
</a>
<a style="color:inherit;" xlink:href="textedit:///Users/christoph/src/github.com/folkengine/.claude/docs/schenker/beethoven5-motto/middleground.ly:9:2:3">
<g transform="translate(45.1921, 22.2398)">
<path transform="scale(0.0040, -0.0040)" d="M72 -106c40 0 204 110 231 143c7 9 11 19 11 28c0 22 -18 41 -42 41c-40 0 -204 -110 -231 -143c-7 -9 -10 -19 -10 -28c0 -22 17 -41 41 -41zM0 -67c0 71 46 203 258 203c41 0 86 -10 86 -69c0 -71 -46 -203 -258 -203c-41 0 -86 10 -86 69z" fill="currentColor"/>
</g>
</a>
<a style="color:inherit;" xlink:href="textedit:///Users/christoph/src/github.com/folkengine/.claude/docs/schenker/beethoven5-motto/middleground.ly:9:5:6">
<g transform="translate(45.1921, 17.1898)">
<text font-family="serif" font-size="1.9598" text-anchor="start" fill="currentColor">
<tspan>II</tspan>
</text>
</g>
</a>
<a style="color:inherit;" xlink:href="textedit:///Users/christoph/src/github.com/folkengine/.claude/docs/schenker/beethoven5-motto/background-urlinie.ly:9:2:3">
<g transform="translate(45.1921, 34.9638)">
<path transform="scale(0.0040, -0.0040)" d="M72 -106c40 0 204 110 231 143c7 9 11 19 11 28c0 22 -18 41 -42 41c-40 0 -204 -110 -231 -143c-7 -9 -10 -19 -10 -28c0 -22 17 -41 41 -41zM0 -67c0 71 46 203 258 203c41 0 86 -10 86 -69c0 -71 -46 -203 -258 -203c-41 0 -86 10 -86 69z" fill="currentColor"/>
</g>
</a>
<a style="color:inherit;" xlink:href="textedit:///Users/christoph/src/github.com/folkengine/.claude/docs/schenker/beethoven5-motto/background-urlinie.ly:9:4:5">
<g transform="translate(45.1921, 25.5038)">
<text font-family="serif" font-weight="bold" font-size="1.5552" text-anchor="start" fill="currentColor">
<tspan>^</tspan>
</text>
</g>
<g transform="translate(45.2091, 26.7038)">
<text font-family="serif" font-size="1.9598" text-anchor="start" fill="currentColor">
<tspan>2</tspan>
</text>
</g>
</a>
<a style="color:inherit;" xlink:href="textedit:///Users/christoph/src/github.com/folkengine/.claude/docs/schenker/beethoven5-motto/background-bass.ly:9:2:3">
<g transform="translate(45.1921, 43.4638)">
<path transform="scale(0.0040, -0.0040)" d="M72 -106c40 0 204 110 231 143c7 9 11 19 11 28c0 22 -18 41 -42 41c-40 0 -204 -110 -231 -143c-7 -9 -10 -19 -10 -28c0 -22 17 -41 41 -41zM0 -67c0 71 46 203 258 203c41 0 86 -10 86 -69c0 -71 -46 -203 -258 -203c-41 0 -86 10 -86 69z" fill="currentColor"/>
</g>
</a>
<a style="color:inherit;" xlink:href="textedit:///Users/christoph/src/github.com/folkengine/.claude/docs/schenker/beethoven5-motto/background-bass.ly:9:19:20">
<g transform="translate(45.1921, 45.8977)">
<text font-family="serif" font-size="1.9598" text-anchor="start" fill="currentColor">
<tspan>V</tspan>
</text>
</g>
</a>
<g transform="translate(46.5045, 10.7398)">
<rect x="-0.0650" y="-1.0000" width="0.1300" height="3.2410" ry="0.0400" fill="currentColor"/>
</g>
<g transform="translate(46.5695, 32.4638)">
<rect x="-0.0000" y="-5.0000" width="0.0000" height="7.2410" ry="0.0000" fill="currentColor"/>
</g>
<g transform="translate(46.5695, 41.4638)">
<rect x="-0.0000" y="-1.5000" width="0.0000" height="3.2410" ry="0.0000" fill="currentColor"/>
</g>
<g transform="translate(44.9921, 43.4638)">
<path transform="scale(0.0020, -0.0020)" d="M-31 250c0 -21 -63 -57 -63 -250s63 -229 63 -250c0 -10 -9 -19 -19 -19c-5 0 -12 2 -16 8c-54 77 -90 167 -90 261s36 184 90 261c4 6 11 8 16 8c10 0 19 -9 19 -19z" fill="currentColor"/>
</g>
<g transform="translate(46.7695, 43.4638)">
<path transform="scale(0.0020, -0.0020)" d="M31 -250c0 21 63 57 63 250s-63 229 -63 250c0 10 9 19 19 19c5 0 12 -2 16 -8c54 -77 90 -167 90 -261s-36 -184 -90 -261c-4 -6 -11 -8 -16 -8c-10 0 -19 9 -19 19z" fill="currentColor"/>
</g>
<g transform="translate(1.2447, 11.2974)">
<text font-family="serif" font-size="2.2000" text-anchor="start" fill="currentColor">
<tspan>Fg.</tspan>
</text>
</g>
<a style="color:inherit;" xlink:href="textedit:///Users/christoph/src/github.com/folkengine/.claude/docs/schenker/beethoven5-motto/foreground.ly:10:2:3">
<g transform="translate(54.7921, 13.2398)">
<path transform="scale(0.0040, -0.0040)" d="M72 -106c40 0 204 110 231 143c7 9 11 19 11 28c0 22 -18 41 -42 41c-40 0 -204 -110 -231 -143c-7 -9 -10 -19 -10 -28c0 -22 17 -41 41 -41zM0 -67c0 71 46 203 258 203c41 0 86 -10 86 -69c0 -71 -46 -203 -258 -203c-41 0 -86 10 -86 69z" fill="currentColor"/>
</g>
</a>
<a style="color:inherit;" xlink:href="textedit:///Users/christoph/src/github.com/folkengine/.claude/docs/schenker/beethoven5-motto/foreground.ly:10:4:5">
<g transform="translate(55.4808, 8.1538)">
<path transform="scale(0.0040, -0.0040)" d="M-67 48c0 37 30 67 67 67s67 -30 67 -67s-30 -67 -67 -67s-67 30 -67 67zM-332 -3c0 35 77 366 332 366s332 -331 332 -366c0 -9 -10 -15 -19 -15s-17 5 -19 18c-26 148 -146 262 -294 262s-268 -114 -294 -262c-2 -13 -10 -18 -19 -18s-19 6 -19 15z" fill="currentColor"/>
</g>
</a>
<g transform="translate(6.7687, 26.1018)">
<rect x="0.0000" y="-17.4120" width="0.1600" height="34.8240" ry="0.0500" fill="currentColor"/>
</g>
<g transform="translate(1.2106, 33.0213)">
<text font-family="serif" font-size="2.2000" text-anchor="start" fill="currentColor">
<tspan>Bg.</tspan>
</text>
</g>
<g transform="translate(56.1045, 10.7398)">
<rect x="-0.0650" y="-1.0000" width="0.1300" height="3.2410" ry="0.0400" fill="currentColor"/>
</g>
<g transform="translate(0.8862, 20.2974)">
<text font-family="serif" font-size="2.2000" text-anchor="start" fill="currentColor">
<tspan>Mg.</tspan>
</text>
</g>
</svg>
