<svg xmlns="http://www.w3.org/2000/svg" xmlns:xlink="http://www.w3.org/1999/xlink" version="1.2" width="253.26mm" height="70.78mm" viewBox="-20.8445 -0.0000 144.1189 40.2758">
<style type="text/css">
<![CDATA[
tspan { white-space: pre; }
]]>
</style>
<g transform="translate(-20.8445, 2.6532)">
<text font-family="serif" font-weight="bold" font-size="3.4923" text-anchor="start" fill="currentColor">
<tspan>Beethoven, Symphony No. 5 in C minor, op. 67 — whole-symphony Urlinie</tspan>
</text>
</g>
<g transform="translate(-4.9337, 6.1532)">
<text font-family="serif" font-weight="bold" font-size="2.4697" text-anchor="start" fill="currentColor">
<tspan>Very simplified background: 3-2-1 (E flat - D - C) over i - V - I; C minor to C major</tspan>
</text>
</g>
<g transform="translate(6.8287, 17.6980)">
<line stroke-linejoin="round" stroke-linecap="round" stroke-width="0.1000" stroke="currentColor" x1="0.0500" y1="0" x2="47.9134" y2="0"/>
</g>
<g transform="translate(6.8287, 16.6980)">
<line stroke-linejoin="round" stroke-linecap="round" stroke-width="0.1000" stroke="currentColor" x1="0.0500" y1="0" x2="47.9134" y2="0"/>
</g>
<g transform="translate(6.8287, 15.6980)">
<line stroke-linejoin="round" stroke-linecap="round" stroke-width="0.1000" stroke="currentColor" x1="0.0500" y1="0" x2="47.9134" y2="0"/>
</g>
<g transform="translate(6.8287, 14.6980)">
<line stroke-linejoin="round" stroke-linecap="round" stroke-width="0.1000" stroke="currentColor" x1="0.0500" y1="0" x2="47.9134" y2="0"/>
</g>
<g transform="translate(6.8287, 13.6980)">
<line stroke-linejoin="round" stroke-linecap="round" stroke-width="0.1000" stroke="currentColor" x1="0.0500" y1="0" x2="47.9134" y2="0"/>
</g>
<g transform="translate(6.8287, 28.8419)">
<line stroke-linejoin="round" stroke-linecap="round" stroke-width="0.1000" stroke="currentColor" x1="0.0500" y1="0" x2="47.9134" y2="0"/>
</g>
<g transform="translate(6.8287, 27.8419)">
<line stroke-linejoin="round" stroke-linecap="round" stroke-width="0.1000" stroke="currentColor" x1="0.0500" y1="0" x2="47.9134" y2="0"/>
</g>
<g transform="translate(6.8287, 26.8419)">
<line stroke-linejoin="round" stroke-linecap="round" stroke-width="0.1000" stroke="currentColor" x1="0.0500" y1="0" x2="47.9134" y2="0"/>
</g>
<g transform="translate(6.8287, 25.8419)">
<line stroke-linejoin="round" stroke-linecap="round" stroke-width="0.1000" stroke="currentColor" x1="0.0500" y1="0" x2="47.9134" y2="0"/>
</g>
<g transform="translate(6.8287, 24.8419)">
<line stroke-linejoin="round" stroke-linecap="round" stroke-width="0.1000" stroke="currentColor" x1="0.0500" y1="0" x2="47.9134" y2="0"/>
</g>
<g transform="translate(6.8287, 37.8419)">
<line stroke-linejoin="round" stroke-linecap="round" stroke-width="0.1000" stroke="currentColor" x1="0.0500" y1="0" x2="47.9134" y2="0"/>
</g>
<g transform="translate(6.8287, 36.8419)">
<line stroke-linejoin="round" stroke-linecap="round" stroke-width="0.1000" stroke="currentColor" x1="0.0500" y1="0" x2="47.9134" y2="0"/>
</g>
<g transform="translate(6.8287, 35.8419)">
<line stroke-linejoin="round" stroke-linecap="round" stroke-width="0.1000" stroke="currentColor" x1="0.0500" y1="0" x2="47.9134" y2="0"/>
</g>
<g transform="translate(6.8287, 34.8419)">
<line stroke-linejoin="round" stroke-linecap="round" stroke-width="0.1000" stroke="currentColor" x1="0.0500" y1="0" x2="47.9134" y2="0"/>
</g>
<g transform="translate(6.8287, 33.8419)">
<line stroke-linejoin="round" stroke-linecap="round" stroke-width="0.1000" stroke="currentColor" x1="0.0500" y1="0" x2="47.9134" y2="0"/>
</g>
<g transform="translate(0.0000, 12.6980)">
<rect x="25.6660" y="-0.1000" width="1.9563" height="0.2000" ry="0.1000" fill="currentColor"/>
</g>
<g transform="translate(1.2106, 27.3994)">
<text font-family="serif" font-size="2.2000" text-anchor="start" fill="currentColor">
<tspan>Bg.</tspan>
</text>
</g>
<a style="color:inherit;" xlink:href="textedit:///Users/christoph/src/github.com/folkengine/.claude/docs/schenker/beethoven5-symphony/background-urlinie.ly:6:2:3">
<g transform="translate(16.3921, 25.3419)">
<path transform="scale(0.0040, -0.0040)" d="M72 -106c40 0 204 110 231 143c7 9 11 19 11 28c0 22 -18 41 -42 41c-40 0 -204 -110 -231 -143c-7 -9 -10 -19 -10 -28c0 -22 17 -41 41 -41zM0 -67c0 71 46 203 258 203c41 0 86 -10 86 -69c0 -71 -46 -203 -258 -203c-41 0 -86 10 -86 69z" fill="currentColor"/>
</g>
</a>
<a style="color:inherit;" xlink:href="textedit:///Users/christoph/src/github.com/folkengine/.claude/docs/schenker/beethoven5-symphony/background-urlinie.ly:6:5:6">
<g transform="translate(16.3921, 20.1541)">
<text font-family="serif" font-weight="bold" font-size="1.5552" text-anchor="start" fill="currentColor">
<tspan>^</tspan>
</text>
</g>
<g transform="translate(16.4091, 21.3541)">
<text font-family="serif" font-size="1.9598" text-anchor="start" fill="currentColor">
<tspan>3</tspan>
</text>
</g>
</a>
<g transform="translate(7.6287, 27.8419)">
<path transform="scale(0.0040, -0.0040)" d="M266 -635h-6c-108 0 -195 88 -195 197c0 58 53 103 112 103c54 0 95 -47 95 -103c0 -52 -43 -95 -95 -95c-11 0 -21 2 -31 6c26 -39 68 -65 117 -65h4zM401 151c19 -89 48 -242 60 -354c76 27 112 94 112 163c0 89 -60 179 -172 191zM74 28c0 -112 98 -247 278 -247
c21 0 44 2 68 6c-7 64 -29 203 -63 364c-79 -8 -124 -61 -124 -119c0 -44 25 -91 81 -123c5 -5 7 -10 7 -15c0 -11 -10 -22 -22 -22c-15 0 -126 62 -126 187c0 88 58 174 160 197c-14 58 -29 117 -46 175c-107 -121 -213 -243 -213 -403zM357 1194c28 0 143 -206 143 -361
c0 -143 -86 -255 -180 -364c21 -68 39 -138 56 -207c5 0 10 1 14 1c155 0 255 -129 255 -262c0 -113 -74 -212 -180 -245c3 -35 5 -70 5 -105c0 -19 -1 -39 -2 -58c-7 -119 -88 -225 -202 -228l1 43c93 2 153 92 159 191c1 18 2 37 2 55c0 31 -1 61 -4 92
c-28 -5 -55 -8 -80 -8c-239 0 -342 217 -342 374c0 177 131 306 248 441c-29 96 -52 170 -52 346c0 189 144 295 159 295zM247 782c0 -55 12 -115 35 -190c82 100 147 202 147 326c0 40 -6 82 -21 127c-49 -24 -161 -97 -161 -263z" fill="currentColor"/>
</g>
<a style="color:inherit;" xlink:href="textedit:///Users/christoph/src/github.com/folkengine/.claude/docs/schenker/beethoven5-symphony/background-urlinie.ly:3:2:3">
<g transform="translate(11.2521, 26.8419)">
<path transform="scale(0.0040, -0.0040)" d="M27 41l-1 -66v-11c0 -22 1 -44 4 -66c45 38 93 80 93 139c0 33 -14 67 -43 67c-31 0 -52 -30 -53 -63zM-15 -138l-12 595c8 5 18 8 27 8s19 -3 27 -8l-7 -345c25 21 58 34 91 34c52 0 89 -48 89 -102c0 -80 -86 -117 -147 -169c-15 -13 -24 -38 -45 -38
c-13 0 -23 11 -23 25z" fill="currentColor"/>
</g>
<g transform="translate(12.1721, 25.3419)">
<path transform="scale(0.0040, -0.0040)" d="M27 41l-1 -66v-11c0 -22 1 -44 4 -66c45 38 93 80 93 139c0 33 -14 67 -43 67c-31 0 -52 -30 -53 -63zM-15 -138l-12 595c8 5 18 8 27 8s19 -3 27 -8l-7 -345c25 21 58 34 91 34c52 0 89 -48 89 -102c0 -80 -86 -117 -147 -169c-15 -13 -24 -38 -45 -38
c-13 0 -23 11 -23 25z" fill="currentColor"/>
</g>
<g transform="translate(13.0921, 27.3419)">
<path transform="scale(0.0040, -0.0040)" d="M27 41l-1 -66v-11c0 -22 1 -44 4 -66c45 38 93 80 93 139c0 33 -14 67 -43 67c-31 0 -52 -30 -53 -63zM-15 -138l-12 595c8 5 18 8 27 8s19 -3 27 -8l-7 -345c25 21 58 34 91 34c52 0 89 -48 89 -102c0 -80 -86 -117 -147 -169c-15 -13 -24 -38 -45 -38
c-13 0 -23 11 -23 25z" fill="currentColor"/>
</g>
</a>
<a style="color:inherit;" xlink:href="textedit:///Users/christoph/src/github.com/folkengine/.claude/docs/schenker/beethoven5-symphony/background-bass.ly:6:2:3">
<g transform="translate(16.3921, 36.3419)">
<path transform="scale(0.0040, -0.0040)" d="M72 -106c40 0 204 110 231 143c7 9 11 19 11 28c0 22 -18 41 -42 41c-40 0 -204 -110 -231 -143c-7 -9 -10 -19 -10 -28c0 -22 17 -41 41 -41zM0 -67c0 71 46 203 258 203c41 0 86 -10 86 -69c0 -71 -46 -203 -258 -203c-41 0 -86 10 -86 69z" fill="currentColor"/>
</g>
</a>
<a style="color:inherit;" xlink:href="textedit:///Users/christoph/src/github.com/folkengine/.claude/docs/schenker/beethoven5-symphony/background-bass.ly:6:4:5">
<g transform="translate(16.3921, 39.7943)">
<text font-family="serif" font-size="1.9598" text-anchor="start" fill="currentColor">
<tspan>i</tspan>
</text>
</g>
</a>
<g transform="translate(7.6287, 34.8419)">
<path transform="scale(0.0040, -0.0040)" d="M557 -125c0 28 23 51 51 51s51 -23 51 -51s-23 -51 -51 -51s-51 23 -51 51zM557 125c0 28 23 51 51 51s51 -23 51 -51s-23 -51 -51 -51s-51 23 -51 51zM232 263c172 0 293 -88 293 -251c0 -263 -263 -414 -516 -521c-3 -3 -6 -4 -9 -4c-7 0 -13 6 -13 13c0 3 1 6 4 9
c202 118 412 265 412 493c0 120 -63 235 -171 235c-74 0 -129 -54 -154 -126c11 5 22 8 34 8c55 0 100 -45 100 -100c0 -58 -44 -106 -100 -106c-60 0 -112 47 -112 106c0 133 102 244 232 244z" fill="currentColor"/>
</g>
<a style="color:inherit;" xlink:href="textedit:///Users/christoph/src/github.com/folkengine/.claude/docs/schenker/beethoven5-symphony/background-bass.ly:3:2:3">
<g transform="translate(11.2521, 36.8419)">
<path transform="scale(0.0040, -0.0040)" d="M27 41l-1 -66v-11c0 -22 1 -44 4 -66c45 38 93 80 93 139c0 33 -14 67 -43 67c-31 0 -52 -30 -53 -63zM-15 -138l-12 595c8 5 18 8 27 8s19 -3 27 -8l-7 -345c25 21 58 34 91 34c52 0 89 -48 89 -102c0 -80 -86 -117 -147 -169c-15 -13 -24 -38 -45 -38
c-13 0 -23 11 -23 25z" fill="currentColor"/>
</g>
<g transform="translate(12.1721, 35.3419)">
<path transform="scale(0.0040, -0.0040)" d="M27 41l-1 -66v-11c0 -22 1 -44 4 -66c45 38 93 80 93 139c0 33 -14 67 -43 67c-31 0 -52 -30 -53 -63zM-15 -138l-12 595c8 5 18 8 27 8s19 -3 27 -8l-7 -345c25 21 58 34 91 34c52 0 89 -48 89 -102c0 -80 -86 -117 -147 -169c-15 -13 -24 -38 -45 -38
c-13 0 -23 11 -23 25z" fill="currentColor"/>
</g>
<g transform="translate(13.0921, 37.3419)">
<path transform="scale(0.0040, -0.0040)" d="M27 41l-1 -66v-11c0 -22 1 -44 4 -66c45 38 93 80 93 139c0 33 -14 67 -43 67c-31 0 -52 -30 -53 -63zM-15 -138l-12 595c8 5 18 8 27 8s19 -3 27 -8l-7 -345c25 21 58 34 91 34c52 0 89 -48 89 -102c0 -80 -86 -117 -147 -169c-15 -13 -24 -38 -45 -38
c-13 0 -23 11 -23 25z" fill="currentColor"/>
</g>
</a>
<g transform="translate(17.7695, 26.8419)">
<rect x="-0.0000" y="-5.0000" width="0.0000" height="3.2410" ry="0.0000" fill="currentColor"/>
</g>
<g transform="translate(17.7695, 35.8419)">
<rect x="-0.0000" y="-5.0000" width="0.0000" height="5.2410" ry="0.0000" fill="currentColor"/>
</g>
<a style="color:inherit;" xlink:href="textedit:///Users/christoph/src/github.com/folkengine/.claude/docs/schenker/beethoven5-symphony/background-bass.ly:6:21:22">
<g transform="translate(17.7695, 30.8419)">
<polygon stroke-linejoin="round" stroke-linecap="round" stroke-width="0.0800" fill="currentColor" stroke="currentColor" points="28.7600 -0.2600 28.7600 0.2600 0.0400 0.2600 0.0400 -0.2600"/>
</g>
</a>
<g transform="translate(20.1695, 26.8419)">
<rect x="-0.0000" y="-5.0000" width="0.0000" height="3.2410" ry="0.0000" fill="currentColor"/>
</g>
<g transform="translate(20.1695, 35.8419)">
<rect x="-0.0000" y="-5.0000" width="0.0000" height="5.2410" ry="0.0000" fill="currentColor"/>
</g>
<a style="color:inherit;" xlink:href="textedit:///Users/christoph/src/github.com/folkengine/.claude/docs/schenker/beethoven5-symphony/background-urlinie.ly:6:23:24">
<g transform="translate(17.7695, 21.8419)">
<polygon stroke-linejoin="round" stroke-linecap="round" stroke-width="0.0800" fill="currentColor" stroke="currentColor" points="28.7600 -0.2600 28.7600 0.2600 0.0400 0.2600 0.0400 -0.2600"/>
</g>
</a>
<g transform="translate(22.5695, 26.8419)">
<rect x="-0.0000" y="-5.0000" width="0.0000" height="3.2410" ry="0.0000" fill="currentColor"/>
</g>
<g transform="translate(22.5695, 35.8419)">
<rect x="-0.0000" y="-5.0000" width="0.0000" height="5.2410" ry="0.0000" fill="currentColor"/>
</g>
<g transform="translate(24.9695, 26.8419)">
<rect x="-0.0000" y="-5.0000" width="0.0000" height="3.2410" ry="0.0000" fill="currentColor"/>
</g>
<g transform="translate(24.9695, 35.8419)">
<rect x="-0.0000" y="-5.0000" width="0.0000" height="5.2410" ry="0.0000" fill="currentColor"/>
</g>
<a style="color:inherit;" xlink:href="textedit:///Users/christoph/src/github.com/folkengine/.claude/docs/schenker/beethoven5-symphony/middleground.ly:7:2:3">
<g transform="translate(25.9921, 12.6980)">
<path transform="scale(0.0040, -0.0040)" d="M0 -46c0 91 116 182 217 182c63 0 109 -35 109 -90c0 -87 -110 -182 -220 -182c-67 0 -106 39 -106 90z" fill="currentColor"/>
</g>
</a>
<a style="color:inherit;" xlink:href="textedit:///Users/christoph/src/github.com/folkengine/.claude/docs/schenker/beethoven5-symphony/middleground.ly:7:6:7">
<g transform="translate(26.3209, 8.1308)">
<text font-family="serif" font-size="1.9598" text-anchor="start" fill="currentColor">
<tspan>II</tspan>
</text>
</g>
<g transform="translate(25.9921, 11.1308)">
<text font-family="serif" font-size="1.9598" text-anchor="start" fill="currentColor">
<tspan>A</tspan>
</text>
</g>
<g transform="translate(27.5075, 11.1308)">
<path transform="scale(0.0036, -0.0036)" d="M29 39l-2 -64v-11c0 -22 2 -43 5 -65c44 38 91 80 91 138c0 33 -13 66 -42 66c-31 0 -51 -31 -52 -64zM-28 454c9 5 18 8 28 8s19 -3 28 -8l-7 -343c25 23 58 36 92 36c51 0 87 -49 87 -103c0 -79 -84 -117 -144 -169c-16 -14 -25 -41 -47 -41c-14 0 -25 13 -25 27z" fill="currentColor"/>
</g>
</a>
<g transform="translate(7.6287, 16.6980)">
<path transform="scale(0.0040, -0.0040)" d="M266 -635h-6c-108 0 -195 88 -195 197c0 58 53 103 112 103c54 0 95 -47 95 -103c0 -52 -43 -95 -95 -95c-11 0 -21 2 -31 6c26 -39 68 -65 117 -65h4zM401 151c19 -89 48 -242 60 -354c76 27 112 94 112 163c0 89 -60 179 -172 191zM74 28c0 -112 98 -247 278 -247
c21 0 44 2 68 6c-7 64 -29 203 -63 364c-79 -8 -124 -61 -124 -119c0 -44 25 -91 81 -123c5 -5 7 -10 7 -15c0 -11 -10 -22 -22 -22c-15 0 -126 62 -126 187c0 88 58 174 160 197c-14 58 -29 117 -46 175c-107 -121 -213 -243 -213 -403zM357 1194c28 0 143 -206 143 -361
c0 -143 -86 -255 -180 -364c21 -68 39 -138 56 -207c5 0 10 1 14 1c155 0 255 -129 255 -262c0 -113 -74 -212 -180 -245c3 -35 5 -70 5 -105c0 -19 -1 -39 -2 -58c-7 -119 -88 -225 -202 -228l1 43c93 2 153 92 159 191c1 18 2 37 2 55c0 31 -1 61 -4 92
c-28 -5 -55 -8 -80 -8c-239 0 -342 217 -342 374c0 177 131 306 248 441c-29 96 -52 170 -52 346c0 189 144 295 159 295zM247 782c0 -55 12 -115 35 -190c82 100 147 202 147 326c0 40 -6 82 -21 127c-49 -24 -161 -97 -161 -263z" fill="currentColor"/>
</g>
<a style="color:inherit;" xlink:href="textedit:///Users/christoph/src/github.com/folkengine/.claude/docs/schenker/beethoven5-symphony/middleground.ly:6:4:5">
<g transform="translate(16.5457, 10.1602)">
<text font-family="serif" font-size="1.9598" text-anchor="start" fill="currentColor">
<tspan>I</tspan>
</text>
</g>
<g transform="translate(16.3921, 13.1602)">
<text font-family="serif" font-size="1.9598" text-anchor="start" fill="currentColor">
<tspan>c</tspan>
</text>
</g>
</a>
<a style="color:inherit;" xlink:href="textedit:///Users/christoph/src/github.com/folkengine/.claude/docs/schenker/beethoven5-symphony/middleground.ly:6:2:3">
<g transform="translate(16.3921, 15.1980)">
<path transform="scale(0.0040, -0.0040)" d="M0 -46c0 91 116 182 217 182c63 0 109 -35 109 -90c0 -87 -110 -182 -220 -182c-67 0 -106 39 -106 90z" fill="currentColor"/>
</g>
</a>
<g transform="translate(27.3695, 26.8419)">
<rect x="-0.0000" y="-5.0000" width="0.0000" height="3.2410" ry="0.0000" fill="currentColor"/>
</g>
<g transform="translate(27.3695, 35.8419)">
<rect x="-0.0000" y="-5.0000" width="0.0000" height="5.2410" ry="0.0000" fill="currentColor"/>
</g>
<g transform="translate(29.7695, 26.8419)">
<rect x="-0.0000" y="-5.0000" width="0.0000" height="3.2410" ry="0.0000" fill="currentColor"/>
</g>
<g transform="translate(29.7695, 35.8419)">
<rect x="-0.0000" y="-5.0000" width="0.0000" height="5.2410" ry="0.0000" fill="currentColor"/>
</g>
<g transform="translate(32.1695, 26.8419)">
<rect x="-0.0000" y="-5.0000" width="0.0000" height="3.2410" ry="0.0000" fill="currentColor"/>
</g>
<g transform="translate(32.1695, 35.8419)">
<rect x="-0.0000" y="-5.0000" width="0.0000" height="5.2410" ry="0.0000" fill="currentColor"/>
</g>
<g transform="translate(34.5695, 26.8419)">
<rect x="-0.0000" y="-5.0000" width="0.0000" height="3.2410" ry="0.0000" fill="currentColor"/>
</g>
<g transform="translate(34.5695, 35.8419)">
<rect x="-0.0000" y="-5.0000" width="0.0000" height="5.2410" ry="0.0000" fill="currentColor"/>
</g>
<a style="color:inherit;" xlink:href="textedit:///Users/christoph/src/github.com/folkengine/.claude/docs/schenker/beethoven5-symphony/middleground.ly:8:2:3">
<g transform="translate(35.5921, 15.1980)">
<path transform="scale(0.0040, -0.0040)" d="M0 -46c0 91 116 182 217 182c63 0 109 -35 109 -90c0 -87 -110 -182 -220 -182c-67 0 -106 39 -106 90z" fill="currentColor"/>
</g>
</a>
<a style="color:inherit;" xlink:href="textedit:///Users/christoph/src/github.com/folkengine/.claude/docs/schenker/beethoven5-symphony/middleground.ly:3:2:3">
<g transform="translate(11.2521, 15.6980)">
<path transform="scale(0.0040, -0.0040)" d="M27 41l-1 -66v-11c0 -22 1 -44 4 -66c45 38 93 80 93 139c0 33 -14 67 -43 67c-31 0 -52 -30 -53 -63zM-15 -138l-12 595c8 5 18 8 27 8s19 -3 27 -8l-7 -345c25 21 58 34 91 34c52 0 89 -48 89 -102c0 -80 -86 -117 -147 -169c-15 -13 -24 -38 -45 -38
c-13 0 -23 11 -23 25z" fill="currentColor"/>
</g>
<g transform="translate(12.1721, 14.1980)">
<path transform="scale(0.0040, -0.0040)" d="M27 41l-1 -66v-11c0 -22 1 -44 4 -66c45 38 93 80 93 139c0 33 -14 67 -43 67c-31 0 -52 -30 -53 -63zM-15 -138l-12 595c8 5 18 8 27 8s19 -3 27 -8l-7 -345c25 21 58 34 91 34c52 0 89 -48 89 -102c0 -80 -86 -117 -147 -169c-15 -13 -24 -38 -45 -38
c-13 0 -23 11 -23 25z" fill="currentColor"/>
</g>
<g transform="translate(13.0921, 16.1980)">
<path transform="scale(0.0040, -0.0040)" d="M27 41l-1 -66v-11c0 -22 1 -44 4 -66c45 38 93 80 93 139c0 33 -14 67 -43 67c-31 0 -52 -30 -53 -63zM-15 -138l-12 595c8 5 18 8 27 8s19 -3 27 -8l-7 -345c25 21 58 34 91 34c52 0 89 -48 89 -102c0 -80 -86 -117 -147 -169c-15 -13 -24 -38 -45 -38
c-13 0 -23 11 -23 25z" fill="currentColor"/>
</g>
</a>
<a style="color:inherit;" xlink:href="textedit:///Users/christoph/src/github.com/folkengine/.claude/docs/schenker/beethoven5-symphony/background-urlinie.ly:8:15:16">
<g transform="translate(35.5921, 25.8419)">
<path transform="scale(0.0040, -0.0040)" d="M72 -106c40 0 204 110 231 143c7 9 11 19 11 28c0 22 -18 41 -42 41c-40 0 -204 -110 -231 -143c-7 -9 -10 -19 -10 -28c0 -22 17 -41 41 -41zM0 -67c0 71 46 203 258 203c41 0 86 -10 86 -69c0 -71 -46 -203 -258 -203c-41 0 -86 10 -86 69z" fill="currentColor"/>
</g>
</a>
<a style="color:inherit;" xlink:href="textedit:///Users/christoph/src/github.com/folkengine/.claude/docs/schenker/beethoven5-symphony/background-urlinie.ly:8:17:18">
<g transform="translate(35.5921, 19.8819)">
<text font-family="serif" font-weight="bold" font-size="1.5552" text-anchor="start" fill="currentColor">
<tspan>^</tspan>
</text>
</g>
<g transform="translate(35.6091, 21.0819)">
<text font-family="serif" font-size="1.9598" text-anchor="start" fill="currentColor">
<tspan>2</tspan>
</text>
</g>
</a>
<a style="color:inherit;" xlink:href="textedit:///Users/christoph/src/github.com/folkengine/.claude/docs/schenker/beethoven5-symphony/background-bass.ly:8:15:16">
<g transform="translate(35.5921, 37.8419)">
<path transform="scale(0.0040, -0.0040)" d="M72 -106c40 0 204 110 231 143c7 9 11 19 11 28c0 22 -18 41 -42 41c-40 0 -204 -110 -231 -143c-7 -9 -10 -19 -10 -28c0 -22 17 -41 41 -41zM0 -67c0 71 46 203 258 203c41 0 86 -10 86 -69c0 -71 -46 -203 -258 -203c-41 0 -86 10 -86 69z" fill="currentColor"/>
</g>
</a>
<a style="color:inherit;" xlink:href="textedit:///Users/christoph/src/github.com/folkengine/.claude/docs/schenker/beethoven5-symphony/background-bass.ly:8:18:19">
<g transform="translate(35.5921, 40.2758)">
<text font-family="serif" font-size="1.9598" text-anchor="start" fill="currentColor">
<tspan>V</tspan>
</text>
</g>
</a>
<g transform="translate(36.9695, 26.8419)">
<rect x="-0.0000" y="-5.0000" width="0.0000" height="3.7410" ry="0.0000" fill="currentColor"/>
</g>
<g transform="translate(36.9695, 35.8419)">
<rect x="-0.0000" y="-5.0000" width="0.0000" height="6.7410" ry="0.0000" fill="currentColor"/>
</g>
<g transform="translate(39.3695, 26.8419)">
<rect x="-0.0000" y="-5.0000" width="0.0000" height="3.7410" ry="0.0000" fill="currentColor"/>
</g>
<g transform="translate(39.3695, 35.8419)">
<rect x="-0.0000" y="-5.0000" width="0.0000" height="6.7410" ry="0.0000" fill="currentColor"/>
</g>
<g transform="translate(0.5277, 16.4843)">
<text font-family="serif" font-size="2.2000" text-anchor="start" fill="currentColor">
<tspan>Mvt.</tspan>
</text>
</g>
<g transform="translate(41.7695, 26.8419)">
<rect x="-0.0000" y="-5.0000" width="0.0000" height="3.7410" ry="0.0000" fill="currentColor"/>
</g>
<g transform="translate(41.7695, 35.8419)">
<rect x="-0.0000" y="-5.0000" width="0.0000" height="6.7410" ry="0.0000" fill="currentColor"/>
</g>
<g transform="translate(44.1695, 26.8419)">
<rect x="-0.0000" y="-5.0000" width="0.0000" height="3.7410" ry="0.0000" fill="currentColor"/>
</g>
<g transform="translate(44.1695, 35.8419)">
<rect x="-0.0000" y="-5.0000" width="0.0000" height="6.7410" ry="0.0000" fill="currentColor"/>
</g>
<a style="color:inherit;" xlink:href="textedit:///Users/christoph/src/github.com/folkengine/.claude/docs/schenker/beethoven5-symphony/middleground.ly:9:2:3">
<g transform="translate(45.1921, 15.1980)">
<path transform="scale(0.0040, -0.0040)" d="M0 -46c0 91 116 182 217 182c63 0 109 -35 109 -90c0 -87 -110 -182 -220 -182c-67 0 -106 39 -106 90z" fill="currentColor"/>
</g>
</a>
<a style="color:inherit;" xlink:href="textedit:///Users/christoph/src/github.com/folkengine/.claude/docs/schenker/beethoven5-symphony/middleground.ly:9:4:5">
<g transform="translate(45.1921, 10.1602)">
<text font-family="serif" font-size="1.9598" text-anchor="start" fill="currentColor">
<tspan>IV</tspan>
</text>
</g>
<g transform="translate(45.5335, 13.1602)">
<text font-family="serif" font-size="1.9598" text-anchor="start" fill="currentColor">
<tspan>C</tspan>
</text>
</g>
</a>
<g transform="translate(6.7687, 25.7699)">
<rect x="0.0000" y="-12.1220" width="0.1600" height="24.2440" ry="0.0500" fill="currentColor"/>
</g>
<a style="color:inherit;" xlink:href="textedit:///Users/christoph/src/github.com/folkengine/.claude/docs/schenker/beethoven5-symphony/background-urlinie.ly:9:15:16">
<g transform="translate(45.1921, 26.3419)">
<path transform="scale(0.0040, -0.0040)" d="M72 -106c40 0 204 110 231 143c7 9 11 19 11 28c0 22 -18 41 -42 41c-40 0 -204 -110 -231 -143c-7 -9 -10 -19 -10 -28c0 -22 17 -41 41 -41zM0 -67c0 71 46 203 258 203c41 0 86 -10 86 -69c0 -71 -46 -203 -258 -203c-41 0 -86 10 -86 69z" fill="currentColor"/>
</g>
</a>
<a style="color:inherit;" xlink:href="textedit:///Users/christoph/src/github.com/folkengine/.claude/docs/schenker/beethoven5-symphony/background-urlinie.ly:9:17:18">
<g transform="translate(45.1921, 19.8819)">
<text font-family="serif" font-weight="bold" font-size="1.5552" text-anchor="start" fill="currentColor">
<tspan>^</tspan>
</text>
</g>
<g transform="translate(45.2091, 21.0819)">
<text font-family="serif" font-size="1.9598" text-anchor="start" fill="currentColor">
<tspan>1</tspan>
</text>
</g>
</a>
<a style="color:inherit;" xlink:href="textedit:///Users/christoph/src/github.com/folkengine/.claude/docs/schenker/beethoven5-symphony/background-bass.ly:9:15:16">
<g transform="translate(45.1921, 36.3419)">
<path transform="scale(0.0040, -0.0040)" d="M72 -106c40 0 204 110 231 143c7 9 11 19 11 28c0 22 -18 41 -42 41c-40 0 -204 -110 -231 -143c-7 -9 -10 -19 -10 -28c0 -22 17 -41 41 -41zM0 -67c0 71 46 203 258 203c41 0 86 -10 86 -69c0 -71 -46 -203 -258 -203c-41 0 -86 10 -86 69z" fill="currentColor"/>
</g>
</a>
<a style="color:inherit;" xlink:href="textedit:///Users/christoph/src/github.com/folkengine/.claude/docs/schenker/beethoven5-symphony/background-bass.ly:9:17:18">
<g transform="translate(45.1921, 39.7809)">
<text font-family="serif" font-size="1.9598" text-anchor="start" fill="currentColor">
<tspan>I</tspan>
</text>
</g>
</a>
<g transform="translate(46.5695, 26.8419)">
<rect x="-0.0000" y="-5.0000" width="0.0000" height="4.2410" ry="0.0000" fill="currentColor"/>
</g>
<g transform="translate(46.5695, 35.8419)">
<rect x="-0.0000" y="-5.0000" width="0.0000" height="5.2410" ry="0.0000" fill="currentColor"/>
</g>
<a style="color:inherit;" xlink:href="textedit:///Users/christoph/src/github.com/folkengine/.claude/docs/schenker/beethoven5-symphony/middleground.ly:8:4:5">
<g transform="translate(35.5921, 10.1602)">
<text font-family="serif" font-size="1.9598" text-anchor="start" fill="currentColor">
<tspan>III</tspan>
</text>
</g>
<g transform="translate(36.2237, 13.1602)">
<text font-family="serif" font-size="1.9598" text-anchor="start" fill="currentColor">
<tspan>c</tspan>
</text>
</g>
</a>
</svg>
